<?xml version="1.0" encoding="UTF-8"?>
<svg xmlns="http://www.w3.org/2000/svg" xmlns:xlink="http://www.w3.org/1999/xlink" width="53pt" height="53pt" viewBox="0 0 53 53" version="1.1">
  <defs>
    <linearGradient id="iconGradient" x1="0%" y1="0%" x2="100%" y2="100%" gradientTransform="rotate(-133 0.5 0.5)">
      <stop offset="0%" stop-color="#FE5B34"/>
      <stop offset="100%" stop-color="#FE378C"/>
    </linearGradient>
  </defs>
  
  <g id="surface1">
    <path 
      style="stroke:none;fill-rule:nonzero;fill-opacity:1;" 
      d="M 48.859375 3.3125 L 4.140625 3.3125 C 2.769531 3.3125 1.65625 4.425781 1.65625 5.796875 L 1.65625 32.296875 C 1.65625 33.667969 2.769531 34.78125 4.140625 34.78125 L 6.625 34.78125 L 6.625 42.234375 C 6.625 43.605469 7.738281 44.71875 9.109375 44.71875 L 35.609375 44.71875 C 36.980469 44.71875 38.09375 43.605469 38.09375 42.234375 L 38.09375 41.40625 L 43.0625 41.40625 C 44.433594 41.40625 45.546875 40.292969 45.546875 38.921875 L 45.546875 34.78125 L 48.859375 34.78125 C 50.230469 34.78125 51.34375 33.667969 51.34375 32.296875 L 51.34375 5.796875 C 51.34375 4.425781 50.230469 3.3125 48.859375 3.3125 Z M 6.625 33.125 L 4.140625 33.125 C 3.683594 33.125 3.3125 32.753906 3.3125 32.296875 L 3.3125 29.8125 L 6.625 29.8125 Z M 36.4375 42.234375 C 36.4375 42.691406 36.066406 43.0625 35.609375 43.0625 L 9.109375 43.0625 C 8.652344 43.0625 8.28125 42.691406 8.28125 42.234375 L 8.28125 27.328125 C 8.28125 26.871094 8.652344 26.5 9.109375 26.5 L 28.984375 26.5 L 28.984375 38.921875 C 28.984375 40.292969 30.097656 41.40625 31.46875 41.40625 L 36.4375 41.40625 Z M 43.890625 38.921875 C 43.890625 39.378906 43.519531 39.75 43.0625 39.75 L 31.46875 39.75 C 31.011719 39.75 30.640625 39.378906 30.640625 38.921875 L 30.640625 15.734375 C 30.640625 15.277344 31.011719 14.90625 31.46875 14.90625 L 32.296875 14.90625 C 32.296875 16.277344 33.410156 17.390625 34.78125 17.390625 L 39.75 17.390625 C 41.121094 17.390625 42.234375 16.277344 42.234375 14.90625 L 43.0625 14.90625 C 43.519531 14.90625 43.890625 15.277344 43.890625 15.734375 Z M 33.953125 14.90625 L 40.578125 14.90625 C 40.578125 15.363281 40.207031 15.734375 39.75 15.734375 L 34.78125 15.734375 C 34.324219 15.734375 33.953125 15.363281 33.953125 14.90625 Z M 49.6875 32.296875 C 49.6875 32.753906 49.316406 33.125 48.859375 33.125 L 45.546875 33.125 L 45.546875 29.8125 L 49.6875 29.8125 Z M 49.6875 28.15625 L 45.546875 28.15625 L 45.546875 15.734375 C 45.546875 14.363281 44.433594 13.25 43.0625 13.25 L 31.46875 13.25 C 30.097656 13.25 28.984375 14.363281 28.984375 15.734375 L 28.984375 24.84375 L 9.109375 24.84375 C 7.738281 24.84375 6.625 25.957031 6.625 27.328125 L 6.625 28.15625 L 3.3125 28.15625 L 3.3125 5.796875 C 3.3125 5.339844 3.683594 4.96875 4.140625 4.96875 L 48.859375 4.96875 C 49.316406 4.96875 49.6875 5.339844 49.6875 5.796875 Z M 49.6875 28.15625 "
      fill="url(#iconGradient)"
    />
    <path 
      style="stroke:none;fill-rule:nonzero;fill-opacity:1;" 
      d="M 38.820312 45.546875 L 24.84375 45.546875 C 24.386719 45.546875 24.015625 45.917969 24.015625 46.375 L 20.703125 46.375 C 20.703125 45.917969 20.332031 45.546875 19.875 45.546875 L 5.898438 45.546875 C 5.636719 45.546875 5.394531 45.667969 5.238281 45.875 C 5.082031 46.085938 5.035156 46.355469 5.105469 46.609375 L 5.484375 47.898438 C 5.792969 48.957031 6.765625 49.683594 7.867188 49.6875 L 36.851562 49.6875 C 37.953125 49.683594 38.925781 48.957031 39.234375 47.898438 L 39.613281 46.609375 C 39.683594 46.355469 39.636719 46.085938 39.480469 45.875 C 39.324219 45.667969 39.082031 45.546875 38.820312 45.546875 Z M 7.867188 48.03125 C 7.5 48.027344 7.179688 47.789062 7.070312 47.4375 L 7.003906 47.203125 L 19.046875 47.203125 C 19.046875 47.660156 19.417969 48.03125 19.875 48.03125 Z M 37.648438 47.4375 C 37.539062 47.789062 37.21875 48.027344 36.851562 48.03125 L 24.84375 48.03125 C 25.300781 48.03125 25.671875 47.660156 25.671875 47.203125 L 37.714844 47.203125 Z M 37.648438 47.4375 "
      fill="url(#iconGradient)"
    />
  </g>
</svg>