<?xml version="1.0" encoding="UTF-8"?>
<svg xmlns="http://www.w3.org/2000/svg" xmlns:xlink="http://www.w3.org/1999/xlink" width="53pt" height="53pt" viewBox="0 0 53 53" version="1.1">
  <defs>
    <linearGradient id="iconGradient" x1="0%" y1="0%" x2="100%" y2="100%" gradientTransform="rotate(-133 0.5 0.5)">
      <stop offset="0%" stop-color="#FE5B34"/>
      <stop offset="100%" stop-color="#FE378C"/>
    </linearGradient>
  </defs>
  
  <g id="surface1">
    <path 
      style="stroke:none;fill-rule:nonzero;fill-opacity:1;" 
      d="M 0.78125 15.859375 C 1.210938 15.859375 1.5625 15.511719 1.5625 15.082031 L 1.5625 10.261719 C 1.5625 8.816406 2.742188 7.644531 4.195312 7.644531 L 30.179688 7.644531 C 30.613281 7.644531 30.960938 7.292969 30.960938 6.863281 C 30.960938 6.433594 30.613281 6.085938 30.179688 6.085938 L 4.195312 6.085938 C 1.882812 6.085938 0 7.957031 0 10.261719 L 0 15.082031 C 0 15.511719 0.347656 15.859375 0.78125 15.859375 Z M 0.78125 15.859375 "
      fill="url(#iconGradient)"
    />
    <path 
      style="stroke:none;fill-rule:nonzero;fill-opacity:1;" 
      d="M 42.847656 45.605469 L 4.195312 45.605469 C 2.742188 45.605469 1.558594 44.429688 1.558594 42.988281 L 1.558594 18.71875 C 1.558594 18.289062 1.210938 17.941406 0.78125 17.941406 C 0.347656 17.941406 0 18.289062 0 18.71875 L 0 42.988281 C 0 45.292969 1.882812 47.164062 4.195312 47.164062 L 42.847656 47.164062 C 43.277344 47.164062 43.625 46.816406 43.625 46.386719 C 43.625 45.953125 43.277344 45.605469 42.847656 45.605469 Z M 42.847656 45.605469 "
      fill="url(#iconGradient)"
    />
    <path 
      style="stroke:none;fill-rule:nonzero;fill-opacity:1;" 
      d="M 49.058594 6.085938 L 33.820312 6.085938 C 33.390625 6.085938 33.039062 6.433594 33.039062 6.863281 C 33.039062 7.292969 33.390625 7.644531 33.820312 7.644531 L 49.058594 7.644531 C 50.507812 7.644531 51.691406 8.816406 51.691406 10.261719 L 51.691406 42.988281 C 51.691406 44.429688 50.507812 45.605469 49.058594 45.605469 L 46.484375 45.605469 C 46.050781 45.605469 45.703125 45.953125 45.703125 46.386719 C 45.703125 46.816406 46.050781 47.164062 46.484375 47.164062 L 49.058594 47.164062 C 51.371094 47.164062 53.25 45.292969 53.25 42.988281 L 53.25 10.261719 C 53.25 7.957031 51.371094 6.085938 49.058594 6.085938 Z M 49.058594 6.085938 "
      fill="url(#iconGradient)"
    />
    <path 
      style="stroke:none;fill-rule:nonzero;fill-opacity:1;" 
      d="M 12.5 30.949219 C 12.070312 30.949219 11.71875 31.296875 11.71875 31.726562 L 11.71875 39.164062 C 11.71875 40.378906 12.863281 41.320312 14.320312 41.320312 C 15.78125 41.320312 16.921875 40.378906 16.921875 39.164062 L 16.921875 23.875 C 19.242188 23.742188 21.085938 21.824219 21.085938 19.484375 C 21.085938 17.140625 19.242188 15.21875 16.921875 15.085938 L 16.921875 13.839844 C 16.921875 12.632812 15.78125 11.691406 14.320312 11.691406 C 12.863281 11.691406 11.71875 12.632812 11.71875 13.839844 L 11.71875 15.085938 C 9.402344 15.21875 7.554688 17.140625 7.554688 19.484375 C 7.554688 21.824219 9.402344 23.742188 11.71875 23.875 L 11.71875 28.007812 C 11.71875 28.4375 12.070312 28.789062 12.5 28.789062 C 12.929688 28.789062 13.277344 28.4375 13.277344 28.007812 L 13.277344 23.882812 L 15.363281 23.882812 L 15.363281 39.164062 C 15.363281 39.445312 14.914062 39.761719 14.320312 39.761719 C 13.722656 39.761719 13.277344 39.445312 13.277344 39.164062 L 13.277344 31.726562 C 13.277344 31.296875 12.929688 30.949219 12.5 30.949219 Z M 14.320312 13.25 C 14.90625 13.25 15.363281 13.566406 15.363281 13.839844 L 15.363281 15.078125 L 13.277344 15.078125 L 13.277344 13.839844 C 13.277344 13.566406 13.730469 13.25 14.320312 13.25 Z M 9.117188 19.484375 C 9.117188 17.910156 10.398438 16.636719 11.980469 16.636719 L 16.664062 16.636719 C 18.238281 16.636719 19.523438 17.910156 19.523438 19.484375 C 19.523438 21.046875 18.238281 22.328125 16.664062 22.328125 C 16.207031 22.292969 12.535156 22.339844 11.980469 22.328125 C 10.398438 22.328125 9.117188 21.046875 9.117188 19.484375 Z M 9.117188 19.484375 "
      fill="url(#iconGradient)"
    />
    <path 
      style="stroke:none;fill-rule:nonzero;fill-opacity:1;" 
      d="M 33.566406 33.457031 C 33.566406 31.113281 31.722656 29.191406 29.398438 29.0625 L 29.40625 13.863281 C 29.40625 12.648438 28.265625 11.699219 26.8125 11.699219 C 25.347656 11.699219 24.207031 12.648438 24.207031 13.863281 L 24.214844 29.0625 C 21.894531 29.191406 20.042969 31.113281 20.042969 33.457031 C 20.042969 35.804688 21.894531 37.726562 24.214844 37.855469 L 24.207031 39.199219 C 24.207031 40.40625 25.347656 41.351562 26.8125 41.351562 C 28.265625 41.351562 29.40625 40.40625 29.40625 39.195312 L 29.398438 37.855469 C 31.722656 37.726562 33.566406 35.804688 33.566406 33.457031 Z M 26.8125 13.261719 C 27.402344 13.261719 27.847656 13.578125 27.847656 13.863281 L 27.839844 29.054688 L 25.773438 29.054688 L 25.765625 13.863281 C 25.765625 13.578125 26.210938 13.261719 26.8125 13.261719 Z M 26.8125 39.789062 C 26.222656 39.789062 25.765625 39.472656 25.765625 39.207031 L 25.773438 37.859375 L 27.84375 37.859375 L 27.847656 39.199219 C 27.847656 39.472656 27.394531 39.789062 26.8125 39.789062 Z M 29.148438 36.304688 L 24.46875 36.304688 C 22.886719 36.304688 21.601562 35.027344 21.601562 33.457031 C 21.601562 31.890625 22.886719 30.613281 24.46875 30.613281 L 29.148438 30.613281 C 30.726562 30.613281 32.011719 31.890625 32.011719 33.457031 C 32.011719 35.027344 30.726562 36.304688 29.148438 36.304688 Z M 29.148438 36.304688 "
      fill="url(#iconGradient)"
    />
    <path 
      style="stroke:none;fill-rule:nonzero;fill-opacity:1;" 
      d="M 41.6875 20.46875 L 41.6875 13.878906 C 41.6875 12.664062 40.546875 11.710938 39.085938 11.710938 C 37.628906 11.710938 36.484375 12.664062 36.484375 13.878906 L 36.503906 20.46875 C 34.175781 20.59375 32.324219 22.519531 32.324219 24.867188 C 32.324219 27.210938 34.179688 29.140625 36.503906 29.261719 L 36.484375 39.234375 C 36.484375 40.4375 37.628906 41.382812 39.085938 41.382812 C 40.546875 41.382812 41.6875 40.4375 41.6875 39.234375 L 41.6875 29.257812 C 44.003906 29.125 45.851562 27.207031 45.851562 24.867188 C 45.851562 22.523438 44.003906 20.601562 41.6875 20.46875 Z M 39.085938 13.273438 C 39.683594 13.273438 40.128906 13.59375 40.128906 13.878906 L 40.128906 20.460938 L 38.066406 20.460938 L 38.046875 13.878906 C 38.046875 13.59375 38.492188 13.273438 39.085938 13.273438 Z M 39.085938 39.820312 C 38.5 39.820312 38.046875 39.507812 38.046875 39.234375 L 38.066406 29.269531 L 40.128906 29.269531 L 40.128906 39.234375 C 40.128906 39.507812 39.671875 39.820312 39.085938 39.820312 Z M 41.429688 27.710938 L 36.742188 27.710938 C 35.167969 27.710938 33.886719 26.433594 33.886719 24.867188 C 33.886719 23.296875 35.167969 22.023438 36.742188 22.023438 L 41.429688 22.023438 C 43.003906 22.023438 44.289062 23.296875 44.289062 24.867188 C 44.289062 26.433594 43.003906 27.710938 41.429688 27.710938 Z M 41.429688 27.710938 "
      fill="url(#iconGradient)"
    />
  </g>
</svg>