<?xml version="1.0" encoding="UTF-8"?>
<svg xmlns="http://www.w3.org/2000/svg" xmlns:xlink="http://www.w3.org/1999/xlink" width="53pt" height="53pt" viewBox="0 0 53 53" version="1.1">
  <defs>
    <linearGradient id="iconGradient" x1="0%" y1="0%" x2="100%" y2="100%" gradientTransform="rotate(-133 0.5 0.5)">
      <stop offset="0%" stop-color="#FE5B34"/>
      <stop offset="100%" stop-color="#FE378C"/>
    </linearGradient>
  </defs>
  
  <g id="surface1">
    <path 
      style="stroke:none;fill-rule:nonzero;fill-opacity:1;" 
      d="M 27.808594 25.191406 C 27.40625 24.785156 26.75 24.785156 26.34375 25.191406 C 25.945312 25.59375 25.945312 26.25 26.34375 26.65625 C 26.75 27.054688 27.40625 27.054688 27.808594 26.65625 C 28.214844 26.25 28.214844 25.59375 27.808594 25.191406 Z M 27.808594 25.191406 "
      fill="url(#iconGradient)"
    />
    <path 
      style="stroke:none;fill-rule:nonzero;fill-opacity:1;" 
      d="M 40.984375 12.015625 C 38.964844 9.992188 35.6875 9.992188 33.664062 12.015625 C 31.648438 14.03125 31.648438 17.316406 33.664062 19.335938 C 35.683594 21.351562 38.96875 21.351562 40.984375 19.335938 C 43.007812 17.3125 43.007812 14.039062 40.984375 12.015625 Z M 39.519531 17.871094 C 38.308594 19.082031 36.339844 19.082031 35.128906 17.871094 C 33.917969 16.660156 33.917969 14.691406 35.128906 13.480469 C 36.34375 12.265625 38.308594 12.265625 39.519531 13.480469 C 40.734375 14.691406 40.734375 16.65625 39.519531 17.871094 Z M 39.519531 17.871094 "
      fill="url(#iconGradient)"
    />
    <path 
      style="stroke:none;fill-rule:nonzero;fill-opacity:1;" 
      d="M 52.695312 0.304688 C 52.492188 0.101562 52.21875 -0.0078125 51.925781 0 C 51.691406 0.0078125 46.121094 0.234375 39.496094 2.574219 C 34.1875 4.449219 29.765625 7.132812 26.34375 10.550781 C 25.578125 11.316406 24.835938 12.128906 24.121094 12.972656 C 20.742188 10.980469 18.035156 11.605469 16.320312 12.523438 C 12.378906 14.632812 9.941406 20.359375 9.941406 24.457031 C 9.941406 24.875 10.191406 25.253906 10.578125 25.414062 C 10.707031 25.46875 10.839844 25.492188 10.976562 25.492188 C 11.246094 25.492188 11.507812 25.386719 11.707031 25.191406 C 13.785156 23.109375 16.347656 23.238281 17.1875 23.351562 L 17.550781 23.714844 C 16.835938 25.410156 16.261719 27.097656 15.839844 28.742188 C 15.6875 29.332031 15.742188 29.964844 15.96875 30.539062 C 14.96875 31 14.007812 31.671875 13.167969 32.511719 C 10.507812 35.175781 9.964844 41.667969 9.945312 41.941406 C 9.917969 42.246094 10.027344 42.542969 10.242188 42.757812 C 10.4375 42.953125 10.699219 43.058594 10.976562 43.058594 C 11 43.058594 11.027344 43.058594 11.058594 43.054688 C 11.332031 43.035156 17.824219 42.492188 20.488281 39.832031 C 21.328125 38.992188 22 38.03125 22.460938 37.035156 C 23.070312 37.273438 23.695312 37.304688 24.257812 37.160156 C 25.902344 36.738281 27.589844 36.164062 29.285156 35.449219 L 29.648438 35.8125 C 29.761719 36.652344 29.890625 39.214844 27.808594 41.292969 C 27.515625 41.589844 27.425781 42.035156 27.585938 42.421875 C 27.746094 42.808594 28.125 43.058594 28.542969 43.058594 C 32.640625 43.058594 38.367188 40.621094 40.476562 36.675781 C 41.394531 34.964844 42.019531 32.257812 40.027344 28.878906 C 40.871094 28.164062 41.683594 27.421875 42.449219 26.65625 C 45.867188 23.234375 48.550781 18.8125 50.425781 13.503906 C 52.765625 6.878906 52.992188 1.308594 53 1.070312 C 53.007812 0.785156 52.898438 0.507812 52.695312 0.304688 Z M 12.253906 22.230469 C 12.898438 19.117188 14.765625 15.707031 17.300781 14.347656 C 18.992188 13.441406 20.84375 13.53125 22.8125 14.609375 C 21.132812 16.8125 19.675781 19.1875 18.460938 21.695312 C 18.445312 21.6875 18.261719 21.453125 17.914062 21.375 C 17.773438 21.34375 15.03125 20.753906 12.253906 22.230469 Z M 19.027344 38.367188 C 17.605469 39.789062 14.261719 40.539062 12.152344 40.847656 C 12.460938 38.738281 13.210938 35.394531 14.632812 33.972656 C 15.429688 33.175781 16.355469 32.570312 17.285156 32.230469 L 20.769531 35.714844 C 20.429688 36.644531 19.824219 37.570312 19.027344 38.367188 Z M 23.742188 35.152344 C 23.445312 35.230469 23.101562 35.117188 22.839844 34.863281 C 21.503906 33.523438 20.976562 33 20.8125 32.832031 C 20.511719 32.53125 19.773438 31.792969 18.140625 30.160156 C 17.882812 29.898438 17.769531 29.554688 17.847656 29.257812 C 18.175781 27.964844 18.609375 26.640625 19.136719 25.304688 L 27.695312 33.863281 C 26.359375 34.390625 25.035156 34.824219 23.742188 35.152344 Z M 38.652344 35.699219 C 37.292969 38.234375 33.882812 40.101562 30.769531 40.746094 C 31.761719 38.878906 31.980469 36.503906 31.617188 35.0625 C 31.535156 34.726562 31.3125 34.558594 31.304688 34.539062 C 33.8125 33.324219 36.1875 31.867188 38.390625 30.1875 C 39.46875 32.15625 39.558594 34.007812 38.652344 35.699219 Z M 40.984375 25.191406 C 40.054688 26.125 39.046875 27.023438 38 27.867188 C 35.480469 29.898438 32.707031 31.617188 29.746094 32.984375 L 20.015625 23.253906 C 21.382812 20.292969 23.101562 17.519531 25.132812 15 C 25.976562 13.953125 26.878906 12.945312 27.808594 12.015625 C 30.875 8.949219 34.832031 6.503906 39.574219 4.75 L 48.25 13.425781 C 46.496094 18.167969 44.050781 22.125 40.984375 25.191406 Z M 48.996094 11.242188 L 41.757812 4.003906 C 45.703125 2.78125 49.132812 2.324219 50.84375 2.15625 C 50.675781 3.867188 50.21875 7.296875 48.996094 11.242188 Z M 48.996094 11.242188 "
      fill="url(#iconGradient)"
    />
    <path 
      style="stroke:none;fill-rule:nonzero;fill-opacity:1;" 
      d="M 24.882812 42.757812 C 24.476562 42.355469 23.820312 42.355469 23.417969 42.757812 L 20.488281 45.6875 C 20.085938 46.089844 20.085938 46.742188 20.488281 47.148438 C 20.894531 47.550781 21.550781 47.550781 21.953125 47.148438 L 24.882812 44.21875 C 25.285156 43.816406 25.285156 43.160156 24.882812 42.757812 Z M 24.882812 42.757812 "
      fill="url(#iconGradient)"
    />
    <path 
      style="stroke:none;fill-rule:nonzero;fill-opacity:1;" 
      d="M 10.246094 28.117188 C 9.839844 27.714844 9.183594 27.714844 8.78125 28.117188 L 5.851562 31.046875 C 5.449219 31.449219 5.449219 32.105469 5.851562 32.511719 C 6.257812 32.914062 6.910156 32.914062 7.3125 32.511719 L 10.242188 29.582031 C 10.644531 29.179688 10.644531 28.523438 10.246094 28.117188 Z M 10.246094 28.117188 "
      fill="url(#iconGradient)"
    />
    <path 
      style="stroke:none;fill-rule:nonzero;fill-opacity:1;" 
      d="M 17.5625 44.21875 C 17.15625 43.816406 16.503906 43.816406 16.101562 44.21875 L 9.085938 51.234375 C 8.683594 51.636719 8.683594 52.292969 9.085938 52.695312 C 9.492188 53.101562 10.148438 53.101562 10.550781 52.695312 L 17.5625 45.6875 C 17.964844 45.28125 17.964844 44.625 17.5625 44.21875 Z M 17.5625 44.21875 "
      fill="url(#iconGradient)"
    />
    <path 
      style="stroke:none;fill-rule:nonzero;fill-opacity:1;" 
      d="M 9.28125 44.21875 C 8.875 43.816406 8.222656 43.816406 7.820312 44.21875 L 0.804688 51.234375 C 0.402344 51.636719 0.402344 52.292969 0.804688 52.695312 C 1.210938 53.101562 1.867188 53.101562 2.269531 52.695312 L 9.28125 45.6875 C 9.683594 45.28125 9.683594 44.625 9.28125 44.21875 Z M 9.28125 44.21875 "
      fill="url(#iconGradient)"
    />
    <path 
      style="stroke:none;fill-rule:nonzero;fill-opacity:1;" 
      d="M 8.78125 35.4375 C 8.375 35.035156 7.71875 35.035156 7.3125 35.4375 L 0.304688 42.449219 C -0.101562 42.851562 -0.101562 43.507812 0.304688 43.914062 C 0.707031 44.316406 1.363281 44.316406 1.765625 43.914062 L 8.78125 36.898438 C 9.183594 36.496094 9.183594 35.84375 8.78125 35.4375 Z M 8.78125 35.4375 "
      fill="url(#iconGradient)"
    />
    <path 
      style="stroke:none;fill-rule:nonzero;fill-opacity:1;" 
      d="M 32.203125 20.796875 C 31.796875 20.390625 31.140625 20.390625 30.738281 20.796875 L 29.277344 22.261719 C 28.871094 22.667969 28.871094 23.320312 29.277344 23.722656 C 29.679688 24.128906 30.332031 24.128906 30.738281 23.722656 L 32.203125 22.261719 C 32.609375 21.859375 32.609375 21.203125 32.203125 20.796875 Z M 32.203125 20.796875 "
      fill="url(#iconGradient)"
    />
  </g>
</svg>