<?xml version="1.0" encoding="UTF-8"?>
<svg xmlns="http://www.w3.org/2000/svg" xmlns:xlink="http://www.w3.org/1999/xlink" width="53pt" height="53pt" viewBox="0 0 53 53" version="1.1">
  <defs>
    <linearGradient id="iconGradient" x1="0%" y1="0%" x2="100%" y2="100%" gradientTransform="rotate(-133 0.5 0.5)">
      <stop offset="0%" stop-color="#FE5B34"/>
      <stop offset="100%" stop-color="#FE378C"/>
    </linearGradient>
  </defs>
  
  <g id="surface1">
    <path 
      style="stroke:none;fill-rule:nonzero;fill-opacity:1;" 
      d="M 28.15625 11.59375 C 26.324219 11.59375 24.84375 13.074219 24.84375 14.90625 C 24.84375 16.738281 26.324219 18.21875 28.15625 18.21875 C 29.988281 18.21875 31.46875 16.738281 31.46875 14.90625 C 31.46875 13.074219 29.988281 11.59375 28.15625 11.59375 Z M 28.15625 16.5625 C 27.242188 16.5625 26.5 15.820312 26.5 14.90625 C 26.5 13.992188 27.242188 13.25 28.15625 13.25 C 29.070312 13.25 29.8125 13.992188 29.8125 14.90625 C 29.8125 15.820312 29.070312 16.5625 28.15625 16.5625 Z M 28.15625 16.5625 "
      fill="url(#iconGradient)"
    />
    <path 
      style="stroke:none;fill-rule:nonzero;fill-opacity:1;" 
      d="M 35.609375 15.734375 C 34.238281 15.734375 33.125 16.847656 33.125 18.21875 C 33.125 19.589844 34.238281 20.703125 35.609375 20.703125 C 36.980469 20.703125 38.09375 19.589844 38.09375 18.21875 C 38.09375 16.847656 36.980469 15.734375 35.609375 15.734375 Z M 35.609375 19.046875 C 35.152344 19.046875 34.78125 18.675781 34.78125 18.21875 C 34.78125 17.761719 35.152344 17.390625 35.609375 17.390625 C 36.066406 17.390625 36.4375 17.761719 36.4375 18.21875 C 36.4375 18.675781 36.066406 19.046875 35.609375 19.046875 Z M 35.609375 19.046875 "
      fill="url(#iconGradient)"
    />
    <path 
      style="stroke:none;fill-rule:nonzero;fill-opacity:1;" 
      d="M 35.609375 24.84375 C 35.609375 26.214844 36.722656 27.328125 38.09375 27.328125 C 39.464844 27.328125 40.578125 26.214844 40.578125 24.84375 C 40.578125 23.472656 39.464844 22.359375 38.09375 22.359375 C 36.722656 22.359375 35.609375 23.472656 35.609375 24.84375 Z M 38.09375 24.015625 C 38.550781 24.015625 38.921875 24.386719 38.921875 24.84375 C 38.921875 25.300781 38.550781 25.671875 38.09375 25.671875 C 37.636719 25.671875 37.265625 25.300781 37.265625 24.84375 C 37.265625 24.386719 37.636719 24.015625 38.09375 24.015625 Z M 38.09375 24.015625 "
      fill="url(#iconGradient)"
    />
    <path 
      style="stroke:none;fill-rule:nonzero;fill-opacity:1;" 
      d="M 48.859375 1.65625 L 4.140625 1.65625 C 2.769531 1.660156 1.660156 2.769531 1.65625 4.140625 L 1.65625 43.890625 C 1.660156 45.261719 2.769531 46.371094 4.140625 46.375 L 19.980469 46.375 L 17.53125 50.058594 C 17.359375 50.3125 17.34375 50.636719 17.492188 50.902344 C 17.628906 51.175781 17.910156 51.347656 18.21875 51.34375 L 34.78125 51.34375 C 35.089844 51.347656 35.371094 51.175781 35.507812 50.902344 C 35.65625 50.636719 35.640625 50.3125 35.46875 50.058594 L 33.019531 46.375 L 48.859375 46.375 C 50.230469 46.371094 51.339844 45.261719 51.34375 43.890625 L 51.34375 4.140625 C 51.339844 2.769531 50.230469 1.660156 48.859375 1.65625 Z M 33.230469 49.6875 L 19.769531 49.6875 L 21.976562 46.375 L 31.023438 46.375 Z M 49.6875 43.890625 C 49.6875 44.347656 49.316406 44.71875 48.859375 44.71875 L 4.140625 44.71875 C 3.683594 44.71875 3.3125 44.347656 3.3125 43.890625 L 3.3125 41.40625 L 49.6875 41.40625 Z M 49.6875 39.75 L 3.3125 39.75 L 3.3125 4.140625 C 3.3125 3.683594 3.683594 3.3125 4.140625 3.3125 L 48.859375 3.3125 C 49.316406 3.3125 49.6875 3.683594 49.6875 4.140625 Z M 49.6875 39.75 "
      fill="url(#iconGradient)"
    />
    <path 
      style="stroke:none;fill-rule:nonzero;fill-opacity:1;" 
      d="M 30.085938 31.054688 L 20.976562 15.277344 C 20.867188 15.085938 20.683594 14.949219 20.46875 14.890625 C 20.261719 14.835938 20.035156 14.863281 19.84375 14.972656 L 16.976562 16.628906 C 16.582031 16.859375 16.445312 17.363281 16.667969 17.761719 L 25.777344 33.539062 C 25.890625 33.726562 26.074219 33.867188 26.285156 33.925781 C 26.355469 33.945312 26.429688 33.953125 26.5 33.953125 C 26.644531 33.949219 26.789062 33.914062 26.914062 33.847656 L 29.78125 32.191406 C 29.972656 32.082031 30.109375 31.898438 30.167969 31.683594 C 30.226562 31.472656 30.199219 31.246094 30.085938 31.054688 Z M 26.808594 31.988281 L 18.527344 17.644531 L 19.960938 16.816406 L 28.242188 31.160156 Z M 26.808594 31.988281 "
      fill="url(#iconGradient)"
    />
    <path 
      style="stroke:none;fill-rule:nonzero;fill-opacity:1;" 
      d="M 19.210938 10.558594 L 18.425781 9.199219 C 18.050781 8.554688 17.507812 8.015625 16.855469 7.652344 L 13.429688 5.753906 C 13.175781 5.613281 12.863281 5.617188 12.613281 5.765625 C 12.359375 5.910156 12.207031 6.179688 12.199219 6.464844 L 12.128906 10.378906 C 12.121094 11.125 12.316406 11.863281 12.6875 12.511719 L 13.472656 13.871094 C 14.164062 15.058594 15.679688 15.464844 16.871094 14.785156 L 18.304688 13.957031 C 18.871094 13.625 19.289062 13.082031 19.460938 12.445312 C 19.632812 11.808594 19.542969 11.132812 19.210938 10.558594 Z M 17.851562 12.015625 C 17.800781 12.226562 17.664062 12.414062 17.476562 12.523438 L 16.042969 13.351562 C 15.644531 13.574219 15.136719 13.4375 14.90625 13.042969 L 14.121094 11.683594 C 13.894531 11.296875 13.78125 10.851562 13.785156 10.398438 L 13.828125 7.875 L 16.046875 9.101562 C 16.441406 9.320312 16.769531 9.640625 16.992188 10.027344 L 17.773438 11.386719 C 17.886719 11.578125 17.914062 11.804688 17.851562 12.015625 Z M 17.851562 12.015625 "
      fill="url(#iconGradient)"
    />
    <path 
      style="stroke:none;fill-rule:nonzero;fill-opacity:1;" 
      d="M 23.460938 9.910156 C 29.507812 7.777344 36.234375 9.996094 39.820312 15.3125 C 43.410156 20.628906 42.949219 27.695312 38.707031 32.5 C 38.066406 30.414062 36.136719 28.988281 33.953125 28.984375 C 33.496094 28.984375 33.125 29.355469 33.125 29.8125 C 33.125 30.269531 33.496094 30.640625 33.953125 30.640625 C 35.785156 30.640625 37.265625 32.121094 37.265625 33.953125 C 37.265625 34.03125 37.257812 34.113281 37.25 34.1875 C 37.199219 34.53125 37.371094 34.871094 37.671875 35.035156 C 37.980469 35.203125 38.359375 35.160156 38.617188 34.929688 C 44.230469 29.925781 45.519531 21.652344 41.695312 15.179688 C 37.871094 8.707031 30 5.84375 22.914062 8.347656 C 22.480469 8.496094 22.253906 8.96875 22.40625 9.402344 C 22.558594 9.835938 23.03125 10.058594 23.460938 9.910156 Z M 23.460938 9.910156 "
      fill="url(#iconGradient)"
    />
    <path 
      style="stroke:none;fill-rule:nonzero;fill-opacity:1;" 
      d="M 21.746094 31.496094 C 16.441406 30.078125 13.296875 24.628906 14.71875 19.324219 C 14.804688 19.035156 14.726562 18.722656 14.515625 18.507812 C 14.304688 18.292969 13.992188 18.210938 13.703125 18.289062 C 13.410156 18.371094 13.1875 18.601562 13.121094 18.894531 C 11.472656 25.078125 15.136719 31.429688 21.316406 33.097656 C 21.386719 33.117188 21.460938 33.125 21.53125 33.125 C 21.945312 33.125 22.296875 32.816406 22.351562 32.402344 C 22.40625 31.992188 22.144531 31.605469 21.746094 31.496094 Z M 21.746094 31.496094 "
      fill="url(#iconGradient)"
    />
  </g>
</svg>