<?xml version="1.0" encoding="UTF-8"?>
<svg xmlns="http://www.w3.org/2000/svg" xmlns:xlink="http://www.w3.org/1999/xlink" width="53pt" height="53pt" viewBox="0 0 53 53" version="1.1">
  <defs>
    <linearGradient id="iconGradient" x1="0%" y1="0%" x2="100%" y2="100%" gradientTransform="rotate(-133 0.5 0.5)">
      <stop offset="0%" stop-color="#FE5B34"/>
      <stop offset="100%" stop-color="#FE378C"/>
    </linearGradient>
  </defs>
  
  <g id="surface1">
    <path 
      style="stroke:none;fill-rule:nonzero;fill-opacity:1;" 
      d="M 26.40625 6.734375 C 26.980469 6.734375 27.449219 6.269531 27.449219 5.695312 L 27.449219 1.042969 C 27.449219 0.464844 26.980469 0 26.40625 0 C 25.832031 0 25.363281 0.464844 25.363281 1.042969 L 25.363281 5.695312 C 25.363281 6.269531 25.832031 6.734375 26.40625 6.734375 Z M 26.40625 6.734375 "
      fill="url(#iconGradient)"
    />
    <path 
      style="stroke:none;fill-rule:nonzero;fill-opacity:1;" 
      d="M 51.890625 35.816406 L 50.050781 33.980469 C 49.394531 33.324219 48.519531 32.964844 47.589844 32.964844 C 46.996094 32.964844 46.421875 33.113281 45.917969 33.390625 L 42.449219 29.921875 L 42.617188 29.753906 C 44.023438 28.34375 44.023438 26.050781 42.617188 24.644531 C 42.113281 24.140625 41.488281 23.804688 40.800781 23.664062 C 40.894531 23.339844 40.945312 22.996094 40.945312 22.652344 C 40.945312 21.679688 40.570312 20.773438 39.890625 20.09375 C 39.382812 19.589844 38.757812 19.253906 38.074219 19.113281 C 38.167969 18.789062 38.214844 18.449219 38.214844 18.097656 C 38.214844 17.132812 37.839844 16.222656 37.160156 15.542969 C 36.644531 15.027344 36.011719 14.703125 35.347656 14.5625 C 35.703125 13.335938 35.398438 11.960938 34.433594 10.992188 C 33.628906 10.191406 32.539062 9.851562 31.492188 9.960938 L 24.613281 8.660156 C 23.5625 8.460938 22.257812 8.328125 21.429688 9.082031 C 21.375 9.128906 21.320312 9.183594 21.269531 9.246094 C 19.988281 8.78125 18.492188 9.058594 17.464844 10.082031 C 16.785156 10.761719 16.410156 11.667969 16.410156 12.636719 C 16.410156 12.984375 16.460938 13.328125 16.554688 13.652344 C 15.871094 13.792969 15.242188 14.128906 14.742188 14.632812 C 14.058594 15.3125 13.683594 16.214844 13.683594 17.183594 C 13.683594 17.53125 13.730469 17.875 13.824219 18.203125 C 13.144531 18.339844 12.515625 18.679688 12.011719 19.179688 C 11.332031 19.863281 10.953125 20.769531 10.953125 21.734375 C 10.953125 22.480469 11.175781 23.183594 11.585938 23.78125 C 11.066406 23.953125 10.59375 24.25 10.195312 24.644531 C 8.789062 26.050781 8.789062 28.34375 10.195312 29.757812 L 10.367188 29.921875 L 6.898438 33.386719 C 5.605469 32.78125 4.019531 33.007812 2.949219 34.074219 L 1.109375 35.910156 C 0.453125 36.5625 0.09375 37.4375 0.09375 38.367188 C 0.09375 39.300781 0.453125 40.171875 1.109375 40.828125 L 3.410156 43.125 C 3.816406 43.53125 4.476562 43.53125 4.882812 43.125 C 5.289062 42.714844 5.289062 42.054688 4.882812 41.648438 L 2.582031 39.351562 C 2.324219 39.089844 2.175781 38.742188 2.175781 38.367188 C 2.175781 37.992188 2.324219 37.644531 2.582031 37.386719 L 4.425781 35.546875 C 4.882812 35.089844 5.589844 35.015625 6.125 35.335938 C 6.164062 35.394531 6.207031 35.449219 6.257812 35.5 C 6.347656 35.589844 6.445312 35.65625 6.558594 35.707031 L 17.125 46.261719 C 17.175781 46.367188 17.242188 46.472656 17.332031 46.5625 C 17.417969 46.648438 17.519531 46.71875 17.625 46.769531 C 17.851562 47.023438 17.972656 47.34375 17.972656 47.6875 C 17.972656 48.058594 17.832031 48.410156 17.570312 48.671875 L 15.726562 50.507812 C 15.183594 51.050781 14.296875 51.050781 13.757812 50.511719 L 11.457031 48.210938 C 11.050781 47.804688 10.390625 47.804688 9.984375 48.210938 C 9.574219 48.621094 9.574219 49.28125 9.984375 49.6875 L 12.28125 51.988281 C 12.960938 52.664062 13.851562 53 14.742188 53 C 15.632812 53 16.519531 52.664062 17.199219 51.988281 L 19.042969 50.148438 C 19.695312 49.492188 20.058594 48.621094 20.058594 47.6875 C 20.058594 47.023438 19.875 46.386719 19.527344 45.839844 L 23.4375 41.941406 C 23.441406 41.9375 23.445312 41.929688 23.449219 41.925781 C 23.894531 41.464844 25.140625 41.550781 26.347656 41.636719 C 27.203125 41.695312 28.15625 41.761719 29.089844 41.652344 L 33.367188 45.925781 C 33.089844 46.429688 32.941406 47.003906 32.941406 47.59375 C 32.941406 48.527344 33.304688 49.398438 33.960938 50.054688 L 35.800781 51.894531 C 36.457031 52.546875 37.328125 52.910156 38.257812 52.910156 C 39.191406 52.910156 40.0625 52.546875 40.71875 51.894531 L 51.890625 40.734375 C 52.546875 40.078125 52.90625 39.207031 52.90625 38.273438 C 52.90625 37.34375 52.546875 36.46875 51.890625 35.816406 Z M 24.226562 10.707031 L 28.75 11.566406 L 26.039062 14.269531 C 25.621094 14.070312 25.046875 13.691406 24.417969 13.089844 C 23.554688 12.265625 22.9375 11.3125 22.882812 10.71875 C 22.878906 10.675781 22.875 10.644531 22.878906 10.617188 C 23.015625 10.585938 23.378906 10.546875 24.226562 10.707031 Z M 18.941406 11.558594 C 19.46875 11.03125 20.289062 10.96875 20.882812 11.375 C 21.222656 12.789062 22.433594 14.074219 22.976562 14.59375 C 23.382812 14.984375 24.675781 16.140625 25.980469 16.460938 C 26.15625 16.710938 26.253906 17.011719 26.253906 17.332031 C 26.253906 17.742188 26.09375 18.125 25.808594 18.414062 C 25.519531 18.699219 25.136719 18.859375 24.722656 18.859375 C 24.3125 18.859375 23.929688 18.699219 23.640625 18.414062 L 23.640625 18.410156 L 18.941406 13.71875 C 18.652344 13.429688 18.492188 13.050781 18.492188 12.636719 C 18.492188 12.226562 18.652344 11.84375 18.941406 11.558594 Z M 16.214844 16.105469 C 16.5 15.820312 16.886719 15.660156 17.296875 15.660156 C 17.707031 15.660156 18.09375 15.820312 18.378906 16.105469 L 22.167969 19.882812 C 22.765625 20.484375 22.765625 21.453125 22.167969 22.046875 C 21.878906 22.335938 21.496094 22.496094 21.085938 22.496094 C 20.671875 22.496094 20.285156 22.335938 19.996094 22.050781 L 17.125 19.179688 C 17.121094 19.175781 17.117188 19.167969 17.113281 19.167969 L 16.214844 18.265625 C 15.925781 17.980469 15.765625 17.59375 15.765625 17.1875 C 15.765625 16.777344 15.925781 16.394531 16.214844 16.105469 Z M 13.484375 20.65625 C 13.773438 20.367188 14.160156 20.210938 14.570312 20.210938 C 14.976562 20.210938 15.359375 20.367188 15.644531 20.648438 L 18.527344 23.527344 C 18.8125 23.8125 18.972656 24.195312 18.972656 24.609375 C 18.972656 25.015625 18.8125 25.398438 18.527344 25.6875 C 18.238281 25.972656 17.851562 26.132812 17.441406 26.132812 C 17.03125 26.132812 16.648438 25.972656 16.359375 25.6875 L 15.3125 24.644531 L 13.484375 22.820312 C 13.199219 22.53125 13.039062 22.144531 13.039062 21.734375 C 13.039062 21.328125 13.199219 20.941406 13.484375 20.65625 Z M 11.671875 26.117188 C 11.960938 25.832031 12.34375 25.671875 12.753906 25.671875 C 13.164062 25.671875 13.550781 25.832031 13.839844 26.117188 L 14.886719 27.164062 C 15.171875 27.449219 15.328125 27.832031 15.328125 28.242188 C 15.328125 28.652344 15.171875 29.035156 14.882812 29.324219 C 14.59375 29.613281 14.210938 29.769531 13.800781 29.769531 C 13.390625 29.769531 13.003906 29.613281 12.714844 29.320312 L 12.585938 29.191406 C 12.582031 29.1875 12.582031 29.1875 12.582031 29.183594 C 12.582031 29.183594 12.578125 29.183594 12.574219 29.183594 L 11.671875 28.28125 C 11.078125 27.683594 11.078125 26.714844 11.671875 26.117188 Z M 32.914062 37.96875 C 32.507812 37.558594 31.847656 37.558594 31.441406 37.96875 L 30.515625 38.894531 C 29.632812 39.773438 28.035156 39.664062 26.492188 39.554688 C 24.816406 39.441406 23.082031 39.320312 21.957031 40.472656 L 18.117188 44.304688 L 8.515625 34.714844 L 11.914062 31.328125 C 12.472656 31.667969 13.125 31.855469 13.800781 31.855469 C 14.769531 31.855469 15.679688 31.476562 16.355469 30.800781 C 17.042969 30.121094 17.417969 29.210938 17.417969 28.242188 C 17.417969 28.234375 17.417969 28.222656 17.417969 28.214844 C 17.425781 28.214844 17.433594 28.21875 17.441406 28.21875 C 18.410156 28.21875 19.320312 27.84375 19.996094 27.164062 C 20.679688 26.484375 21.054688 25.574219 21.054688 24.609375 C 21.054688 24.597656 21.054688 24.589844 21.054688 24.578125 C 21.066406 24.578125 21.074219 24.578125 21.085938 24.578125 C 22.050781 24.578125 22.957031 24.207031 23.644531 23.523438 C 24.351562 22.8125 24.703125 21.878906 24.699219 20.941406 C 24.707031 20.941406 24.71875 20.941406 24.722656 20.941406 C 25.695312 20.941406 26.605469 20.566406 27.28125 19.886719 C 27.960938 19.207031 28.335938 18.300781 28.335938 17.332031 C 28.335938 16.652344 28.152344 16.007812 27.808594 15.445312 L 30.789062 12.46875 C 31.011719 12.246094 31.285156 12.109375 31.574219 12.054688 C 31.605469 12.050781 31.632812 12.042969 31.664062 12.035156 C 32.125 11.976562 32.609375 12.117188 32.960938 12.46875 C 33.554688 13.066406 33.554688 14.035156 32.964844 14.632812 L 32.054688 15.535156 C 32.050781 15.535156 32.046875 15.539062 32.042969 15.542969 L 31 16.585938 C 30.59375 16.992188 30.59375 17.652344 31 18.058594 C 31.40625 18.46875 32.066406 18.46875 32.476562 18.058594 L 33.382812 17.152344 C 33.382812 17.152344 33.382812 17.152344 33.386719 17.152344 L 33.523438 17.015625 C 34.121094 16.421875 35.089844 16.421875 35.6875 17.019531 C 35.976562 17.304688 36.132812 17.6875 36.132812 18.097656 C 36.132812 18.511719 35.976562 18.890625 35.683594 19.179688 L 34.773438 20.09375 L 33.726562 21.136719 C 33.320312 21.539062 33.320312 22.199219 33.722656 22.609375 C 34.132812 23.015625 34.789062 23.019531 35.199219 22.613281 L 36.246094 21.566406 C 36.535156 21.277344 36.917969 21.121094 37.332031 21.121094 C 37.742188 21.121094 38.125 21.277344 38.414062 21.570312 C 38.703125 21.855469 38.859375 22.238281 38.859375 22.652344 C 38.859375 23.058594 38.703125 23.441406 38.414062 23.730469 L 36.597656 25.550781 C 36.1875 25.957031 36.1875 26.617188 36.597656 27.023438 C 36.800781 27.226562 37.066406 27.328125 37.332031 27.328125 C 37.597656 27.328125 37.863281 27.226562 38.066406 27.023438 L 38.960938 26.132812 C 38.964844 26.128906 38.96875 26.121094 38.976562 26.117188 C 39.261719 25.832031 39.648438 25.671875 40.058594 25.671875 C 40.46875 25.671875 40.851562 25.832031 41.140625 26.117188 C 41.734375 26.714844 41.734375 27.683594 41.140625 28.277344 L 40.234375 29.183594 C 40.234375 29.183594 40.234375 29.183594 40.230469 29.1875 L 38.796875 30.625 C 38.386719 31.027344 38.386719 31.691406 38.796875 32.097656 C 38.996094 32.300781 39.265625 32.402344 39.535156 32.402344 C 39.796875 32.402344 40.0625 32.304688 40.269531 32.097656 L 40.972656 31.394531 L 44.34375 34.765625 L 34.742188 44.351562 L 31.304688 40.917969 C 31.542969 40.761719 31.773438 40.582031 31.988281 40.367188 L 32.914062 39.441406 C 33.324219 39.035156 33.324219 38.375 32.914062 37.96875 Z M 50.417969 39.257812 L 39.246094 50.417969 C 38.984375 50.679688 38.632812 50.824219 38.257812 50.824219 C 37.882812 50.824219 37.535156 50.679688 37.273438 50.417969 L 35.429688 48.578125 C 35.167969 48.316406 35.027344 47.96875 35.027344 47.59375 C 35.027344 47.222656 35.167969 46.875 35.429688 46.613281 L 46.605469 35.453125 C 46.867188 35.191406 47.214844 35.050781 47.589844 35.050781 C 47.964844 35.050781 48.3125 35.191406 48.574219 35.453125 L 50.417969 37.292969 C 50.675781 37.550781 50.824219 37.898438 50.824219 38.273438 C 50.824219 38.648438 50.675781 38.996094 50.417969 39.257812 Z M 50.417969 39.257812 "
      fill="url(#iconGradient)"
    />
    <path 
      style="stroke:none;fill-rule:nonzero;fill-opacity:1;" 
      d="M 12.5625 5.855469 C 12.769531 6.058594 13.035156 6.160156 13.300781 6.160156 C 13.566406 6.160156 13.835938 6.058594 14.039062 5.855469 C 14.445312 5.449219 14.445312 4.789062 14.035156 4.378906 L 10.238281 0.589844 C 9.832031 0.179688 9.171875 0.179688 8.761719 0.589844 C 8.359375 0.996094 8.359375 1.65625 8.765625 2.0625 Z M 12.5625 5.855469 "
      fill="url(#iconGradient)"
    />
    <path 
      style="stroke:none;fill-rule:nonzero;fill-opacity:1;" 
      d="M 39.515625 6.160156 C 39.78125 6.160156 40.046875 6.058594 40.25 5.855469 L 44.046875 2.0625 C 44.453125 1.65625 44.453125 0.996094 44.050781 0.589844 C 43.640625 0.179688 42.980469 0.179688 42.574219 0.589844 L 38.777344 4.378906 C 38.367188 4.789062 38.367188 5.449219 38.777344 5.855469 C 38.980469 6.058594 39.25 6.160156 39.515625 6.160156 Z M 39.515625 6.160156 "
      fill="url(#iconGradient)"
    />
    <path 
      style="stroke:none;fill-rule:nonzero;fill-opacity:1;" 
      d="M 6.503906 44.84375 C 6.097656 45.253906 6.105469 45.914062 6.515625 46.316406 L 6.519531 46.320312 C 6.722656 46.519531 6.984375 46.617188 7.246094 46.617188 C 7.519531 46.617188 7.785156 46.515625 7.988281 46.308594 C 8.394531 45.894531 8.386719 45.234375 7.976562 44.832031 C 7.566406 44.425781 6.90625 44.433594 6.503906 44.84375 Z M 6.503906 44.84375 "
      fill="url(#iconGradient)"
    />
    <path 
      style="stroke:none;fill-rule:nonzero;fill-opacity:1;" 
      d="M 35.464844 36.464844 C 35.621094 36.464844 35.785156 36.429688 35.9375 36.351562 C 36.449219 36.09375 36.65625 35.46875 36.394531 34.953125 C 36.136719 34.4375 35.507812 34.230469 34.996094 34.488281 L 34.992188 34.492188 C 34.476562 34.753906 34.273438 35.378906 34.53125 35.894531 C 34.714844 36.257812 35.082031 36.464844 35.464844 36.464844 Z M 35.464844 36.464844 "
      fill="url(#iconGradient)"
    />
  </g>
</svg>