<svg xmlns="http://www.w3.org/2000/svg" xmlns:xlink="http://www.w3.org/1999/xlink" width="53pt" height="53pt" viewBox="0 0 53 53" version="1.1">
  <defs>
    <linearGradient id="iconGradient" x1="0%" y1="0%" x2="100%" y2="100%" gradientTransform="rotate(-133 0.5 0.5)">
      <stop offset="0%" stop-color="#FE5B34"/>
      <stop offset="100%" stop-color="#FE378C"/>
    </linearGradient>
  </defs>
  
  <g id="surface1">
    <path 
      style="stroke:none;fill-rule:nonzero;fill-opacity:1;" 
      d="M 45.308594 7.777344 C 42.890625 5.363281 40.035156 3.433594 36.890625 2.105469 C 27.832031 -1.75 17.382812 -0.234375 9.796875 6.039062 L 9.796875 3.554688 C 9.796875 3.066406 9.402344 2.671875 8.914062 2.671875 C 8.425781 2.671875 8.03125 3.066406 8.03125 3.554688 L 8.03125 7.96875 C 8.03125 8.457031 8.425781 8.851562 8.914062 8.851562 L 11.910156 8.851562 C 11.371094 9.304688 10.84375 9.777344 10.34375 10.277344 C 8.949219 11.679688 7.746094 13.253906 6.753906 14.964844 C 6.730469 14.988281 6.710938 15.007812 6.691406 15.03125 C 6.679688 15.054688 6.679688 15.082031 6.671875 15.101562 C 3.097656 21.316406 2.632812 28.84375 5.421875 35.449219 C 5.789062 36.296875 6.203125 37.121094 6.671875 37.917969 C 6.679688 37.941406 6.679688 37.96875 6.691406 37.988281 C 6.71875 38.027344 6.746094 38.066406 6.78125 38.101562 C 8.757812 41.523438 11.601562 44.363281 15.027344 46.332031 C 15.054688 46.347656 15.070312 46.375 15.097656 46.390625 C 15.128906 46.40625 15.160156 46.421875 15.195312 46.429688 C 21.402344 49.992188 28.917969 50.449219 35.511719 47.667969 C 36.351562 47.304688 37.167969 46.894531 37.957031 46.429688 C 37.992188 46.421875 38.023438 46.40625 38.054688 46.394531 C 38.078125 46.375 38.101562 46.355469 38.121094 46.332031 C 41.546875 44.367188 44.394531 41.527344 46.371094 38.101562 C 46.402344 38.066406 46.433594 38.027344 46.460938 37.992188 C 46.472656 37.96875 46.472656 37.945312 46.480469 37.921875 C 50.601562 30.871094 50.601562 22.152344 46.480469 15.101562 C 46.472656 15.082031 46.472656 15.054688 46.460938 15.03125 C 46.441406 15.007812 46.421875 14.988281 46.402344 14.964844 C 44.421875 11.523438 41.566406 8.667969 38.121094 6.691406 C 38.097656 6.671875 38.085938 6.644531 38.054688 6.628906 C 38.027344 6.613281 38.007812 6.617188 37.988281 6.605469 C 31.773438 3.03125 24.246094 2.570312 17.640625 5.355469 C 16.792969 5.726562 15.964844 6.140625 15.167969 6.605469 C 15.144531 6.617188 15.121094 6.617188 15.097656 6.628906 C 15.074219 6.648438 15.050781 6.667969 15.03125 6.691406 C 14.667969 6.898438 14.304688 7.109375 13.953125 7.34375 C 13.785156 7.179688 13.5625 7.085938 13.332031 7.085938 L 11.292969 7.085938 C 18.363281 1.515625 27.902344 0.234375 36.199219 3.730469 C 42.132812 6.238281 46.851562 10.957031 49.355469 16.886719 C 51.949219 23.042969 51.949219 29.980469 49.355469 36.136719 C 46.851562 42.066406 42.132812 46.785156 36.199219 49.292969 C 30.046875 51.882812 23.105469 51.882812 16.949219 49.292969 C 11.019531 46.785156 6.300781 42.066406 3.792969 36.136719 C 1.203125 29.980469 1.203125 23.042969 3.792969 16.886719 C 3.984375 16.4375 3.773438 15.917969 3.324219 15.726562 C 2.875 15.535156 2.359375 15.746094 2.167969 16.195312 C -0.609375 22.792969 -0.609375 30.230469 2.167969 36.824219 C 4.855469 43.175781 9.910156 48.230469 16.257812 50.917969 C 22.855469 53.695312 30.292969 53.695312 36.886719 50.917969 C 43.238281 48.230469 48.292969 43.175781 50.980469 36.824219 C 53.757812 30.230469 53.757812 22.792969 50.980469 16.195312 C 49.648438 13.050781 47.722656 10.191406 45.308594 7.777344 Z M 18.324219 6.980469 C 20.660156 5.996094 23.160156 5.4375 25.691406 5.339844 L 25.691406 10.617188 C 25.691406 11.105469 26.085938 11.5 26.574219 11.5 C 27.0625 11.5 27.457031 11.105469 27.457031 10.617188 L 27.457031 5.339844 C 29.992188 5.441406 32.488281 5.996094 34.824219 6.984375 C 35.359375 7.210938 35.882812 7.46875 36.390625 7.738281 L 34.640625 10.773438 C 34.480469 11.050781 34.476562 11.386719 34.636719 11.660156 C 34.792969 11.9375 35.085938 12.109375 35.402344 12.105469 C 35.71875 12.105469 36.015625 11.9375 36.167969 11.660156 L 37.917969 8.628906 C 40.566406 10.285156 42.800781 12.519531 44.453125 15.164062 L 41.425781 16.917969 C 41.152344 17.074219 40.984375 17.363281 40.980469 17.683594 C 40.980469 18 41.148438 18.292969 41.421875 18.453125 C 41.699219 18.605469 42.035156 18.605469 42.308594 18.445312 L 45.347656 16.691406 C 45.613281 17.207031 45.875 17.726562 46.101562 18.265625 C 47.089844 20.601562 47.644531 23.09375 47.746094 25.628906 L 42.46875 25.628906 C 41.980469 25.628906 41.585938 26.023438 41.585938 26.511719 C 41.585938 27 41.980469 27.394531 42.46875 27.394531 L 47.746094 27.394531 C 47.644531 29.929688 47.089844 32.421875 46.101562 34.757812 C 45.875 35.296875 45.617188 35.820312 45.347656 36.332031 L 42.308594 34.578125 C 42.035156 34.414062 41.699219 34.414062 41.421875 34.574219 C 41.148438 34.730469 40.980469 35.023438 40.980469 35.339844 C 40.984375 35.65625 41.152344 35.949219 41.425781 36.109375 L 44.457031 37.859375 C 42.804688 40.5 40.570312 42.734375 37.921875 44.390625 L 36.167969 41.363281 C 36.015625 41.089844 35.71875 40.917969 35.402344 40.917969 C 35.085938 40.914062 34.792969 41.085938 34.636719 41.359375 C 34.476562 41.636719 34.480469 41.972656 34.640625 42.246094 L 36.390625 45.285156 C 35.882812 45.550781 35.359375 45.8125 34.824219 46.039062 C 32.488281 47.023438 29.992188 47.585938 27.457031 47.683594 L 27.457031 42.40625 C 27.457031 41.917969 27.0625 41.523438 26.574219 41.523438 C 26.085938 41.523438 25.691406 41.917969 25.691406 42.40625 L 25.691406 47.683594 C 23.160156 47.585938 20.664062 47.027344 18.328125 46.039062 C 17.792969 45.8125 17.269531 45.554688 16.757812 45.285156 L 18.511719 42.246094 C 18.75 41.824219 18.605469 41.285156 18.183594 41.042969 C 17.761719 40.800781 17.226562 40.945312 16.980469 41.363281 L 15.230469 44.394531 C 12.585938 42.738281 10.351562 40.503906 8.695312 37.859375 L 11.726562 36.109375 C 12 35.953125 12.171875 35.660156 12.171875 35.34375 C 12.171875 35.027344 12.003906 34.734375 11.730469 34.578125 C 11.453125 34.417969 11.117188 34.417969 10.84375 34.582031 L 7.800781 36.332031 C 7.539062 35.816406 7.273438 35.296875 7.046875 34.757812 C 6.058594 32.421875 5.503906 29.929688 5.40625 27.394531 L 10.679688 27.394531 C 11.171875 27.394531 11.566406 27 11.566406 26.511719 C 11.566406 26.023438 11.171875 25.628906 10.679688 25.628906 L 5.40625 25.628906 C 5.503906 23.09375 6.058594 20.601562 7.046875 18.265625 C 7.273438 17.726562 7.535156 17.207031 7.800781 16.691406 L 10.839844 18.445312 C 11.113281 18.605469 11.453125 18.605469 11.726562 18.453125 C 12 18.292969 12.167969 18 12.167969 17.683594 C 12.167969 17.363281 12 17.074219 11.722656 16.917969 L 8.691406 15.167969 C 10.347656 12.523438 12.582031 10.285156 15.226562 8.632812 L 16.976562 11.660156 C 17.136719 11.941406 17.425781 12.109375 17.742188 12.109375 C 18.058594 12.109375 18.351562 11.941406 18.511719 11.664062 C 18.667969 11.394531 18.664062 11.054688 18.507812 10.78125 L 16.757812 7.738281 C 17.269531 7.46875 17.789062 7.210938 18.324219 6.984375 Z M 18.324219 6.980469 "
      fill="url(#iconGradient)"
    />
    <path 
      style="stroke:none;fill-rule:nonzero;fill-opacity:1;" 
      d="M 15.25 25.78125 C 13.867188 27.160156 13.867188 29.394531 15.25 30.777344 L 21.429688 36.957031 C 22.089844 37.621094 22.988281 37.992188 23.925781 37.992188 L 24.09375 37.992188 C 25.089844 37.945312 26.019531 37.480469 26.65625 36.710938 L 39.015625 21.695312 C 39.839844 20.726562 40.078125 19.386719 39.640625 18.191406 C 39.195312 16.992188 38.148438 16.128906 36.890625 15.925781 C 35.632812 15.722656 34.359375 16.210938 33.566406 17.207031 L 23.675781 29.214844 L 20.246094 25.785156 C 18.847656 24.445312 16.648438 24.445312 15.25 25.78125 Z M 23.113281 31.148438 C 23.285156 31.328125 23.53125 31.421875 23.78125 31.402344 C 24.027344 31.394531 24.257812 31.277344 24.417969 31.082031 L 34.925781 18.324219 C 35.222656 17.964844 35.65625 17.734375 36.121094 17.691406 C 37.089844 17.597656 37.953125 18.308594 38.046875 19.28125 C 38.089844 19.746094 37.953125 20.210938 37.652344 20.570312 L 25.289062 35.582031 C 24.96875 35.96875 24.5 36.203125 24 36.222656 L 23.925781 36.222656 C 23.457031 36.222656 23.007812 36.039062 22.675781 35.707031 L 16.496094 29.523438 C 16.039062 29.082031 15.855469 28.425781 16.015625 27.808594 C 16.175781 27.191406 16.660156 26.710938 17.277344 26.546875 C 17.894531 26.386719 18.546875 26.570312 18.992188 27.027344 Z M 23.113281 31.148438 "
      fill="url(#iconGradient)"
    />
  </g>
</svg>