<?xml version="1.0" encoding="UTF-8"?> <svg xmlns="http://www.w3.org/2000/svg" xmlns:xlink="http://www.w3.org/1999/xlink" fill="#ffffff" height="79px" width="79px" version="1.1" id="Layer_1" viewBox="0 0 512 512" xml:space="preserve" stroke="#ffffff"> <g id="SVGRepo_bgCarrier" stroke-width="0"></g> <g id="SVGRepo_tracerCarrier" stroke-linecap="round" stroke-linejoin="round"></g> <g id="SVGRepo_iconCarrier"> <g> <g> <path d="M510.701,342.826c-1.724-2.978-4.909-4.815-8.348-4.815l-316.808,0.057c-3.477,0-6.69,1.875-8.395,4.9l-65.721,118.1 l-4.014,7.001c-1.743,3.034-1.705,6.775,0.104,9.78c1.809,2.996,5.06,5.013,8.603,4.655l314.33,0.235 c3.467,0,6.671-1.856,8.386-4.871l71.883-125.402C512.435,349.478,512.425,345.803,510.701,342.826z M424.854,463.441 l-292.432-0.433l58.777-105.643l294.496-0.057L424.854,463.441z"></path> </g> </g> <g> <g> <path d="M504.491,304.182L347.496,36.378l-1.357-2.33c-1.734-2.959-4.909-4.787-8.339-4.787l-144.878,0.572 c-3.439,0.019-6.615,1.866-8.33,4.852c-1.705,2.996-1.696,6.671,0.038,9.648L342.898,311.6l1.329,2.4 c1.724,2.978,4.909,4.916,8.348,4.916c0.009,0,0.019,0,0.038,0l2.685-0.111l132.798-0.04l8.103-0.064 c3.439-0.019,6.615-1.877,8.329-4.874C506.235,310.841,506.225,307.16,504.491,304.182z M358.096,299.407L209.779,49.056 l122.491-0.49l147.092,250.851L358.096,299.407z"></path> </g> </g> <g> <g> <path d="M237.914,190.476l-61.66-120.531l-4.07-6.963c-1.734-2.959-4.9-4.777-8.329-4.777c-3.241-0.009-6.624,1.828-8.348,4.815 L2.657,332.112L1.3,334.449c-1.743,3.005-1.734,6.718,0.029,9.724l72.919,124.589c1.724,2.968,4.9,4.53,8.33,4.53h0.019 c3.439,0,6.615-1.59,8.339-4.568l145.622-266.249l1.376-2.229C239.695,197.231,239.695,193.491,237.914,190.476z M82.408,444.738 L20.805,339.245L163.638,87.64l54.923,107.669L82.408,444.738z"></path> </g> </g> </g> </svg> 