<?xml version="1.0" encoding="UTF-8"?> <svg xmlns="http://www.w3.org/2000/svg" xmlns:xlink="http://www.w3.org/1999/xlink" version="1.1" x="0px" y="0px" width="447px" height="49px" viewBox="0 0 447 49" style="enable-background:new 0 0 447 49;" xml:space="preserve"> <style type="text/css"> .st0{fill:#FFFFFF;} .st1{fill:url(#SVGID_1_);} .st2{fill:url(#SVGID_2_);} .st3{fill:url(#SVGID_3_);} </style> <g id="_x3C______________________x2F__x3E__xA0_Изображение_1_"> </g> <g id="ПрофитWEB"> <g> <path class="st0" d="M45.02,3.24h33.75v37.1h-8.28V10.77H53.3v29.57h-8.28V3.24z"></path> <path class="st0" d="M111.29,17.26c2.31,2.63,3.46,5.91,3.46,9.83s-1.15,7.2-3.46,9.83c-2.31,2.63-5.16,3.95-8.57,3.95 c-3.37,0-6.13-1.2-8.28-3.6v13.41h-7.76V13.84h7.76v3.02c2.12-2.37,4.88-3.55,8.28-3.55C106.12,13.31,108.98,14.63,111.29,17.26z M105.3,32.13c1.23-1.34,1.85-3.02,1.85-5.04c0-2.01-0.62-3.7-1.85-5.06c-1.23-1.36-2.79-2.04-4.66-2.04 c-2.74,0-4.81,1.08-6.2,3.23v7.69c1.39,2.16,3.45,3.23,6.2,3.23C102.51,34.14,104.07,33.47,105.3,32.13z"></path> <path class="st0" d="M144.59,17.29c2.81,2.65,4.22,5.92,4.22,9.81c0,3.89-1.41,7.16-4.22,9.8c-2.81,2.65-6.28,3.98-10.42,3.98 c-4.13,0-7.6-1.33-10.42-3.98c-2.81-2.65-4.22-5.92-4.22-9.8c0-3.89,1.41-7.15,4.22-9.81c2.81-2.65,6.28-3.97,10.42-3.97 C138.31,13.31,141.78,14.64,144.59,17.29z M129.13,22c-1.32,1.34-1.98,3.04-1.98,5.09c0,2.05,0.66,3.74,1.98,5.06 c1.32,1.33,2.99,1.99,5,1.99c2.05,0,3.73-0.66,5.05-1.99c1.32-1.33,1.98-3.01,1.98-5.06c0-2.05-0.67-3.74-2-5.09 c-1.34-1.34-3.01-2.01-5.03-2.01C132.11,19.99,130.44,20.66,129.13,22z"></path> <path class="st0" d="M187.97,17.18c2.95,2.58,4.43,5.88,4.43,9.91c0,4.03-1.48,7.33-4.43,9.91c-2.95,2.58-6.72,3.87-11.3,3.87v9.8 h-7.76v-9.8c-4.55,0-8.3-1.29-11.25-3.87c-2.95-2.58-4.43-5.88-4.43-9.91c0-4.03,1.48-7.33,4.43-9.91 c2.95-2.58,6.7-3.87,11.25-3.87V3.24h7.76v10.07C181.26,13.31,185.02,14.6,187.97,17.18z M168.91,34.35V19.78 c-2.47,0-4.41,0.65-5.83,1.96c-1.42,1.31-2.14,3.09-2.14,5.35c0,2.26,0.71,4.04,2.14,5.33C164.5,33.71,166.45,34.35,168.91,34.35z M184.69,27.09c0-2.3-0.71-4.09-2.14-5.38c-1.42-1.29-3.39-1.93-5.88-1.93v14.57c2.5,0,4.46-0.64,5.88-1.93 C183.98,31.13,184.69,29.35,184.69,27.09z"></path> <path class="st0" d="M217.35,13.84h7.81v26.5h-7.76V24.28l-11.56,16.06h-7.81v-26.5h7.76V29.9L217.35,13.84z"></path> <path class="st0" d="M256.72,13.84v6.47h-9.53v20.03h-7.76V20.31h-9.53v-6.47H256.72z"></path> <path class="st0" d="M304.27,5.34h8.65l-11.4,35h-8.06l-7.03-22.75l-7.07,22.75h-8.11l-11.4-35h8.65l7.17,23.2l6.88-23.2h7.71 l6.83,23.15L304.27,5.34z"></path> <path class="st0" d="M345.89,5.34v7.05h-19.65v6.85h18.23v6.75h-18.23v7.25h20v7.1h-27.81v-35H345.89z"></path> <path class="st0" d="M382.83,30.79c0,2.7-0.93,4.98-2.8,6.85c-1.87,1.8-4.86,2.7-8.99,2.7h-18.72v-35h17.79 c3.6,0,6.38,0.76,8.33,2.27c1.95,1.52,2.92,3.71,2.92,6.58c0,3.8-1.77,6.4-5.31,7.8c2.26,0.67,3.96,1.77,5.08,3.3 S382.83,28.66,382.83,30.79z M360.13,11.89v7.8h7.71c1.7,0,3.02-0.33,3.95-1c0.93-0.67,1.4-1.63,1.4-2.9c0-2.6-1.79-3.9-5.35-3.9 H360.13z M374.73,29.59c0-1.27-0.47-2.28-1.4-3.05s-2.33-1.15-4.2-1.15h-8.99v8.35h8.99c1.87,0,3.27-0.38,4.2-1.15 C374.26,31.83,374.73,30.83,374.73,29.59z"></path> </g> <g> <g> <linearGradient id="SVGID_1_" gradientUnits="userSpaceOnUse" x1="224.5881" y1="48.8359" x2="224.5881" y2="0.8252"> <stop offset="0" style="stop-color:#FF2815"></stop> <stop offset="1" style="stop-color:#FE3B82"></stop> </linearGradient> <path class="st1" d="M31.17,8.63c0,0.92-0.38,1.71-1.14,2.39c-0.37,0.35-1.31,1-2.81,1.93c-4.47,2.71-9.25,6.38-14.33,11.01 c3.18,3.03,6.37,5.7,9.55,8.02c1.7,1.18,3.4,2.36,5.1,3.54c1.4,0.98,2.09,2.03,2.09,3.14c0,1.79-0.94,2.68-2.81,2.68 c-1.44,0-4.23-1.62-8.38-4.85c-8.14-6.29-12.2-10.47-12.2-12.54c0-1.57,1.58-3.8,4.74-6.68c2.53-2.29,5.53-4.59,9-6.91 c4.4-2.95,7.17-4.42,8.31-4.42C30.21,5.95,31.17,6.85,31.17,8.63z"></path> <linearGradient id="SVGID_2_" gradientUnits="userSpaceOnUse" x1="224.5881" y1="48.8359" x2="224.5881" y2="0.8252"> <stop offset="0" style="stop-color:#FF2815"></stop> <stop offset="1" style="stop-color:#FE3B82"></stop> </linearGradient> <path class="st2" d="M409.93,3c0,0.5-0.74,2.19-2.23,5.07c-1.67,3.27-2.98,6-3.93,8.21c-1.88,4.45-3.49,9.26-4.85,14.42 c-0.91,3.41-1.64,6.91-2.2,10.49c-0.48,3.08-0.76,4.71-0.83,4.9c-0.39,1.02-0.74,1.71-1.06,2.06c-0.41,0.46-0.98,0.7-1.72,0.7 c-0.76,0-1.39-0.26-1.9-0.79c-0.51-0.53-0.76-1.22-0.76-2.07c0-1.73,0.75-5.81,2.26-12.25c1.47-6.14,2.92-11.16,4.35-15.06 c2.38-6.42,4.59-11.39,6.63-14.92c1.11-1.95,2.34-2.92,3.69-2.92c0.72,0,1.33,0.22,1.82,0.65C409.68,1.92,409.93,2.42,409.93,3z"></path> <linearGradient id="SVGID_3_" gradientUnits="userSpaceOnUse" x1="224.5881" y1="48.8359" x2="224.5881" y2="0.8252"> <stop offset="0" style="stop-color:#FF2815"></stop> <stop offset="1" style="stop-color:#FE3B82"></stop> </linearGradient> <path class="st3" d="M442.93,21.9c0,2.36-2.64,5.89-7.92,10.61c-3.66,3.27-7.15,5.85-10.47,7.73c-2.84,1.59-4.95,2.39-6.35,2.39 c-0.72,0-1.34-0.28-1.85-0.85c-0.51-0.57-0.77-1.22-0.77-1.96c0-0.94,0.54-1.77,1.64-2.49c1.44-0.83,2.87-1.66,4.29-2.49 c5.08-2.97,9.9-7.29,14.46-12.93c-2.94-2.31-6.33-4.36-10.14-6.13c-2.73-1.15-5.44-2.3-8.15-3.47c-1.92-0.96-2.88-2.09-2.88-3.4 c0-0.81,0.29-1.5,0.87-2.08c0.58-0.58,1.29-0.87,2.14-0.87c0.44,0,0.97,0.11,1.6,0.33c7.09,2.49,13.29,5.67,18.62,9.53 C441.3,18.17,442.93,20.2,442.93,21.9z"></path> </g> </g> </g> </svg> 