<?xml version="1.0" encoding="UTF-8"?> <svg xmlns="http://www.w3.org/2000/svg" xmlns:xlink="http://www.w3.org/1999/xlink" viewBox="0 0 403.44 402.635" data-stylerecorder="true" style="text-align: left; line-height: 0px; letter-spacing: 0px; font-weight: 500; font-size: 20px;"><style data-stylerecorder="true" style="text-align: left; line-height: 0px; letter-spacing: 0px; font-weight: 500; font-size: 20px;">.A{isolation:isolate}.G,.I,.F,.H{mix-blend-mode:overlay}</style><defs data-stylerecorder="true" style="text-align: left; line-height: 0px; letter-spacing: 0px; font-weight: 500; font-size: 20px;"><radialGradient id="A" cx="224.925" cy="170.225" r="211.813" gradientTransform="matrix(0, 0.9054, -0.909, 0, 385.14746, -11.80304)" gradientUnits="userSpaceOnUse" data-stylerecorder="true" style="text-align: left; line-height: 0px; letter-spacing: 0px; font-weight: 500; font-size: 20px;"><stop offset=".204" stop-color="#da206d" data-stylerecorder="true" style="text-align: left; line-height: 0px; letter-spacing: 0px; font-weight: 500; font-size: 20px;"></stop><stop offset="1" stop-color="#da206d" stop-opacity="0" data-stylerecorder="true" style="text-align: left; line-height: 0px; letter-spacing: 0px; font-weight: 500; font-size: 20px;"></stop></radialGradient><linearGradient id="B" x1="146.599" y1="293.629" x2="363.308" y2="293.629" gradientUnits="userSpaceOnUse" data-stylerecorder="true" style="text-align: left; line-height: 0px; letter-spacing: 0px; font-weight: 500; font-size: 20px;"><stop offset="0" stop-color="#fff" data-stylerecorder="true" style="text-align: left; line-height: 0px; letter-spacing: 0px; font-weight: 500; font-size: 20px;"></stop><stop offset=".091" stop-color="#fff" stop-opacity=".946" data-stylerecorder="true" style="text-align: left; line-height: 0px; letter-spacing: 0px; font-weight: 500; font-size: 20px;"></stop><stop offset=".263" stop-color="#fff" stop-opacity=".804" data-stylerecorder="true" style="text-align: left; line-height: 0px; letter-spacing: 0px; font-weight: 500; font-size: 20px;"></stop><stop offset=".497" stop-color="#fff" stop-opacity=".573" data-stylerecorder="true" style="text-align: left; line-height: 0px; letter-spacing: 0px; font-weight: 500; font-size: 20px;"></stop><stop offset=".782" stop-color="#fff" stop-opacity=".26" data-stylerecorder="true" style="text-align: left; line-height: 0px; letter-spacing: 0px; font-weight: 500; font-size: 20px;"></stop><stop offset="1" stop-color="#fff" stop-opacity="0" data-stylerecorder="true" style="text-align: left; line-height: 0px; letter-spacing: 0px; font-weight: 500; font-size: 20px;"></stop></linearGradient><linearGradient id="C" x1="175.447" y1="293.638" x2="334.487" y2="293.637" xlink:href="#B" data-stylerecorder="true" style="text-align: left; line-height: 0px; letter-spacing: 0px; font-weight: 500; font-size: 20px;"></linearGradient><linearGradient id="D" x1="203.72" x2="306.186" xlink:href="#B" data-stylerecorder="true" style="text-align: left; line-height: 0px; letter-spacing: 0px; font-weight: 500; font-size: 20px;"></linearGradient><path id="E" d="M192.662 314.343l-6.513-.014a1.03 1.03 0 0 1-1.031-1.049h0c.01-.58.483-1.044 1.063-1.044l6.513.014a1.03 1.03 0 0 1 1.031 1.049h0c-.01.58-.483 1.044-1.063 1.045z" data-stylerecorder="true" style="text-align: left; line-height: 0px; letter-spacing: 0px; font-weight: 500; font-size: 20px;"></path><path id="F" d="M190.077 326.932l-10.764-.024a1.03 1.03 0 0 1-1.031-1.049h0c.01-.58.483-1.044 1.063-1.045l10.764.024a1.03 1.03 0 0 1 1.031 1.049h0c-.01.58-.483 1.044-1.063 1.045z" data-stylerecorder="true" style="text-align: left; line-height: 0px; letter-spacing: 0px; font-weight: 500; font-size: 20px;"></path></defs><g class="A" data-stylerecorder="true" style="text-align: left; line-height: 0px; letter-spacing: 0px; font-weight: 500; font-size: 20px;"><g data-stylerecorder="true" style="text-align: left; line-height: 0px; letter-spacing: 0px; font-weight: 500; font-size: 20px;"><ellipse cx="230.413" cy="191.844" rx="192.531" ry="191.783" transform="matrix(.390731 -.920505 .920505 .390731 -55.12998 329.60324)" opacity=".74" fill="url(#A)" data-stylerecorder="true" style="text-align: left; line-height: 0px; letter-spacing: 0px; font-weight: 500; font-size: 20px;"></ellipse><g opacity=".46" data-stylerecorder="true" style="text-align: left; line-height: 0px; letter-spacing: 0px; font-weight: 500; font-size: 20px;"><g fill="#de59c3" data-stylerecorder="true" style="text-align: left; line-height: 0px; letter-spacing: 0px; font-weight: 500; font-size: 20px;"><path d="M216.982 56.797l-41.845-.093c-.426 0-.833-.17-1.132-.474a1.58 1.58 0 0 1-.454-1.14h0c.016-.892.743-1.606 1.635-1.607l41.845.093c.426 0 .833.17 1.132.474a1.58 1.58 0 0 1 .454 1.14h0c-.016.892-.743 1.606-1.635 1.607zm17.103.038l-10.018-.022c-.426 0-.833-.17-1.132-.474a1.58 1.58 0 0 1-.454-1.14h0c.016-.892.743-1.606 1.635-1.607l10.018.022c.426 0 .833.17 1.13.474a1.59 1.59 0 0 1 .454 1.14h0c-.016.892-.743 1.606-1.634 1.607zm14.002.03l-6.917-.015c-.426 0-.833-.17-1.132-.474a1.58 1.58 0 0 1-.454-1.14h0c.016-.892.743-1.606 1.635-1.607l6.917.015c.426 0 .833.17 1.13.474a1.59 1.59 0 0 1 .454 1.14h0c-.016.892-.743 1.606-1.635 1.607zm-46.244 6.354l-26.803-.06c-.426 0-.833-.17-1.132-.474a1.58 1.58 0 0 1-.454-1.14h0c.016-.892.743-1.606 1.635-1.607l26.803.06c.426 0 .833.17 1.132.474a1.58 1.58 0 0 1 .454 1.14h0c-.016.892-.743 1.606-1.635 1.607zm26.565.06l-15.102-.033c-.426 0-.833-.17-1.132-.474a1.58 1.58 0 0 1-.454-1.14h0c.016-.892.743-1.606 1.635-1.607l15.102.033c.426 0 .833.17 1.132.474a1.58 1.58 0 0 1 .454 1.14h0c-.016.892-.743 1.606-1.635 1.607zm-11.62 6.432l-41.845-.093a1.58 1.58 0 0 1-1.13-.474 1.59 1.59 0 0 1-.454-1.14h0c.016-.892.743-1.606 1.635-1.607l41.845.093c.426 0 .833.17 1.132.474a1.58 1.58 0 0 1 .454 1.14h0c-.016.892-.743 1.606-1.635 1.607zm25.79.058l-18.706-.04c-.426 0-.833-.17-1.132-.474a1.58 1.58 0 0 1-.454-1.14h0c.016-.892.743-1.606 1.635-1.607l18.706.04c.426 0 .833.17 1.13.474a1.59 1.59 0 0 1 .454 1.14h0c-.016.892-.743 1.606-1.635 1.607zm19.22.04l-12.134-.027c-.426 0-.833-.17-1.13-.474a1.59 1.59 0 0 1-.454-1.14h0c.016-.892.743-1.606 1.635-1.607l12.134.027c.426 0 .833.17 1.132.474a1.58 1.58 0 0 1 .454 1.14h0c-.016.892-.743 1.606-1.635 1.607zm-55.33 6.337l-31.623-.07c-.426 0-.833-.17-1.132-.474a1.58 1.58 0 0 1-.454-1.14h0c.016-.892.743-1.606 1.634-1.607l31.623.07c.426 0 .833.17 1.13.474a1.59 1.59 0 0 1 .454 1.14h0c-.016.892-.743 1.606-1.634 1.607zm23.642.053l-16.556-.037c-.426 0-.833-.17-1.132-.474a1.58 1.58 0 0 1-.454-1.14h0c.016-.892.743-1.606 1.635-1.607l16.556.037c.426 0 .833.17 1.13.474a1.59 1.59 0 0 1 .454 1.14h0c-.016.892-.743 1.606-1.635 1.607zm-34.682 6.38l-20.68-.046c-.426 0-.833-.17-1.13-.474a1.59 1.59 0 0 1-.454-1.14h0c.016-.892.743-1.606 1.634-1.607l20.68.046c.426 0 .833.17 1.13.474a1.59 1.59 0 0 1 .454 1.14h0c-.016.892-.743 1.606-1.635 1.607zm21.956.048l-14.87-.033c-.426 0-.833-.17-1.13-.474a1.59 1.59 0 0 1-.454-1.14h0c.016-.892.743-1.606 1.634-1.607l14.87.033c.426 0 .833.17 1.13.474a1.59 1.59 0 0 1 .454 1.14h0c-.016.892-.743 1.606-1.634 1.607zm21.556.048l-14.472-.032c-.426 0-.833-.17-1.13-.474a1.59 1.59 0 0 1-.454-1.14h0c.016-.892.743-1.606 1.634-1.607l14.472.032c.426 0 .833.17 1.132.474a1.58 1.58 0 0 1 .454 1.14h0c-.016.892-.743 1.606-1.634 1.607zm-54.272 6.337l-10.018-.022c-.426 0-.833-.17-1.13-.474a1.59 1.59 0 0 1-.454-1.14h0c.016-.892.743-1.606 1.635-1.607l10.018.022c.426 0 .833.17 1.13.474a1.59 1.59 0 0 1 .454 1.14h0c-.016.892-.743 1.606-1.635 1.607zm22.187.05l-15.102-.033c-.426 0-.833-.17-1.132-.474a1.58 1.58 0 0 1-.454-1.14h0c.016-.892.743-1.606 1.634-1.607l15.102.033c.426 0 .833.17 1.132.474a1.58 1.58 0 0 1 .454 1.14h0c-.016.892-.743 1.606-1.635 1.607zm-11.62 6.432l-20.68-.046c-.426 0-.833-.17-1.13-.474a1.59 1.59 0 0 1-.454-1.14h0c.016-.892.743-1.606 1.635-1.607l20.68.046c.426 0 .833.17 1.132.474a1.58 1.58 0 0 1 .454 1.14h0c-.016.892-.743 1.606-1.635 1.607zm25.8.056l-18.706-.04c-.426 0-.833-.17-1.132-.474a1.58 1.58 0 0 1-.454-1.14h0c.016-.892.743-1.606 1.635-1.607l18.706.04c.426 0 .833.17 1.132.474a1.58 1.58 0 0 1 .454 1.14h0c-.016.892-.743 1.606-1.634 1.607zm19.22.044l-12.133-.027c-.426 0-.833-.17-1.132-.474a1.58 1.58 0 0 1-.454-1.14h0c.016-.892.743-1.606 1.635-1.607l12.133.027c.426 0 .833.17 1.132.474a1.58 1.58 0 0 1 .454 1.14h0c-.016.892-.743 1.606-1.635 1.607zm-50.95 6.346l-14.838-.033c-.426 0-.833-.17-1.132-.474a1.58 1.58 0 0 1-.454-1.14h0c.016-.892.743-1.606 1.634-1.607l14.838.033c.426 0 .833.17 1.132.474a1.58 1.58 0 0 1 .454 1.14h0c-.016.892-.743 1.606-1.635 1.607zm23.64.05l-16.556-.037c-.426 0-.833-.17-1.13-.474a1.59 1.59 0 0 1-.454-1.14h0c.016-.892.743-1.606 1.634-1.607l16.556.037c.426 0 .833.17 1.132.474a1.58 1.58 0 0 1 .454 1.14h0c-.016.892-.743 1.606-1.635 1.607z" data-stylerecorder="true" style="text-align: left; line-height: 0px; letter-spacing: 0px; font-weight: 500; font-size: 20px;"></path></g><path d="M116.92 97.634l.09-40.383c.002-1.1.44-2.153 1.22-2.928s1.834-1.2 2.934-1.208l40.383.09c2.29.005 4.14 1.865 4.136 4.154l-.09 40.383c-.002 1.1-.44 2.153-1.22 2.928s-1.834 1.2-2.934 1.208l-40.383-.09c-1.1-.002-2.153-.44-2.928-1.22s-1.2-1.834-1.208-2.934z" fill="none" stroke="#de59c3" stroke-linejoin="round" stroke-width="1.5" data-stylerecorder="true" style="text-align: left; line-height: 0px; letter-spacing: 0px; font-weight: 500; font-size: 20px;"></path></g><g opacity=".46" data-stylerecorder="true" style="text-align: left; line-height: 0px; letter-spacing: 0px; font-weight: 500; font-size: 20px;"><g fill="#de59c3" data-stylerecorder="true" style="text-align: left; line-height: 0px; letter-spacing: 0px; font-weight: 500; font-size: 20px;"><path d="M181.543 314.318l-27.205-.06a1.03 1.03 0 0 1-1.031-1.049h0c.01-.58.483-1.044 1.063-1.045l27.204.06a1.03 1.03 0 0 1 1.031 1.049h0c-.01.58-.483 1.044-1.063 1.045z" data-stylerecorder="true" style="text-align: left; line-height: 0px; letter-spacing: 0px; font-weight: 500; font-size: 20px;"></path><use xlink:href="#E" data-stylerecorder="true" style="text-align: left; line-height: 0px; letter-spacing: 0px; font-weight: 500; font-size: 20px;"></use><path d="M201.765 314.363l-4.497-.01a1.03 1.03 0 0 1-1.031-1.049h0c.01-.58.483-1.044 1.063-1.045l4.497.01a1.03 1.03 0 0 1 1.031 1.049h0c-.01.58-.483 1.044-1.063 1.045zm-30.065 4.132l-17.425-.038a1.03 1.03 0 0 1-1.031-1.049h0c.01-.58.483-1.044 1.063-1.044l17.425.04a1.03 1.03 0 0 1 1.031 1.049h0c-.01.58-.483 1.044-1.063 1.045zm17.27.038l-9.818-.022a1.03 1.03 0 0 1-1.031-1.049h0c.01-.58.483-1.044 1.063-1.045l9.818.022a1.03 1.03 0 0 1 1.031 1.049h0c-.01.58-.483 1.044-1.063 1.044zm-7.554 4.18l-27.205-.06a1.03 1.03 0 0 1-1.031-1.049h0c.01-.58.483-1.044 1.063-1.044l27.204.06a1.03 1.03 0 0 1 1.031 1.049h0c-.01.58-.483 1.044-1.063 1.045zm16.767.036l-12.16-.027a1.03 1.03 0 0 1-1.031-1.049h0c.01-.58.483-1.044 1.063-1.044l12.16.027a1.03 1.03 0 0 1 1.031 1.049h0c-.01.58-.483 1.044-1.063 1.045zm12.495.03l-7.888-.017a1.03 1.03 0 0 1-1.031-1.049h0c.01-.58.483-1.044 1.063-1.044l7.888.017a1.03 1.03 0 0 1 1.031 1.049h0c-.01.58-.483 1.044-1.063 1.044zm-35.97 4.118l-20.56-.046a1.03 1.03 0 0 1-1.031-1.049h0c.01-.58.483-1.044 1.063-1.044l20.56.046a1.03 1.03 0 0 1 1.031 1.049h0c-.01.58-.483 1.044-1.063 1.045z" data-stylerecorder="true" style="text-align: left; line-height: 0px; letter-spacing: 0px; font-weight: 500; font-size: 20px;"></path><use xlink:href="#F" data-stylerecorder="true" style="text-align: left; line-height: 0px; letter-spacing: 0px; font-weight: 500; font-size: 20px;"></use><path d="M167.53 331.08l-13.445-.03a1.03 1.03 0 0 1-1.031-1.049h0c.01-.58.483-1.044 1.063-1.045l13.445.03a1.03 1.03 0 0 1 1.031 1.049h0c-.01.58-.483 1.044-1.063 1.044zm14.274.032l-9.667-.02a1.03 1.03 0 0 1-1.031-1.049h0c.01-.58.483-1.044 1.063-1.045l9.667.02a1.03 1.03 0 0 1 1.031 1.049h0c-.01.58-.483 1.044-1.063 1.045zm14.014.03l-9.408-.02a1.03 1.03 0 0 1-1.031-1.049h0c.01-.58.483-1.044 1.063-1.044l9.408.02a1.03 1.03 0 0 1 1.031 1.049h0c-.01.58-.483 1.044-1.063 1.045z" data-stylerecorder="true" style="text-align: left; line-height: 0px; letter-spacing: 0px; font-weight: 500; font-size: 20px;"></path><use xlink:href="#E" x="-32.127" y="20.92" data-stylerecorder="true" style="text-align: left; line-height: 0px; letter-spacing: 0px; font-weight: 500; font-size: 20px;"></use><path d="M174.96 335.295l-9.818-.022a1.03 1.03 0 0 1-1.031-1.049h0c.01-.58.483-1.044 1.063-1.045l9.818.022a1.03 1.03 0 0 1 1.031 1.049h0c-.01.58-.483 1.044-1.063 1.045zm-7.556 4.18l-13.445-.03a1.03 1.03 0 0 1-1.031-1.049h0c.01-.58.483-1.044 1.063-1.044l13.445.03a1.03 1.03 0 0 1 1.031 1.049h0c-.01.58-.483 1.044-1.063 1.045zm16.766.037l-12.16-.027a1.03 1.03 0 0 1-1.031-1.049h0c.01-.58.483-1.044 1.063-1.045l12.16.027a1.03 1.03 0 0 1 1.031 1.049h0c-.01.58-.483 1.044-1.063 1.045zm12.495.027l-7.888-.017a1.03 1.03 0 0 1-1.031-1.049h0c.01-.58.483-1.044 1.063-1.045l7.888.017a1.03 1.03 0 0 1 1.031 1.049h0c-.01.58-.483 1.044-1.063 1.044zm-33.125 4.126l-9.646-.02a1.03 1.03 0 0 1-1.031-1.049h0c.01-.58.483-1.044 1.063-1.044l9.646.02a1.03 1.03 0 0 1 1.031 1.049h0c-.01.58-.483 1.044-1.063 1.045z" data-stylerecorder="true" style="text-align: left; line-height: 0px; letter-spacing: 0px; font-weight: 500; font-size: 20px;"></path><use xlink:href="#F" x="-11.167" y="16.768" data-stylerecorder="true" style="text-align: left; line-height: 0px; letter-spacing: 0px; font-weight: 500; font-size: 20px;"></use></g><path d="M112.203 342.895l.064-28.77c.003-1.272 1.036-2.3 2.308-2.298l28.77.064c1.272.003 2.3 1.036 2.298 2.308l-.064 28.77c-.001.61-.245 1.196-.678 1.627s-1.02.672-1.63.67l-28.77-.064c-.61-.001-1.196-.245-1.627-.678s-.672-1.02-.67-1.63z" fill="none" stroke="#de59c3" stroke-linejoin="round" stroke-width="1.5" data-stylerecorder="true" style="text-align: left; line-height: 0px; letter-spacing: 0px; font-weight: 500; font-size: 20px;"></path></g><g fill="#fdfcff" data-stylerecorder="true" style="text-align: left; line-height: 0px; letter-spacing: 0px; font-weight: 500; font-size: 20px;"><path class="F" d="M30.94 20.13a22.26 22.26 0 0 0-24.282 4.6 22.26 22.26 0 0 0-5.033 24.21c3.37 8.343 11.433 13.832 20.43 13.9s17.154-5.27 20.67-13.55c4.8-11.308-.476-24.366-11.784-29.166zM14.182 59.6C6.496 56.348 1.53 48.776 1.604 40.426a20.65 20.65 0 0 1 35.37-14.29 20.65 20.65 0 0 1-22.791 33.476zm13.706-32.288c-5.373-2.28-11.6-1.1-15.755 3a14.43 14.43 0 0 0-3.265 15.701c2.188 5.413 7.418 8.974 13.255 9.025a14.43 14.43 0 0 0 5.764-27.717zM17.338 52.18c-6.4-2.713-9.373-10.093-6.66-16.484s10.093-9.373 16.484-6.66 9.373 10.093 6.66 16.484a12.57 12.57 0 0 1-16.484 6.66z" data-stylerecorder="true" style="text-align: left; line-height: 0px; letter-spacing: 0px; font-weight: 500; font-size: 20px;"></path></g><circle class="G" cx="254.968" cy="293.636" r="108.359" transform="matrix(.986096 -.166179 .166179 .986096 -64.17062 47.07573)" opacity=".27" fill="url(#B)" data-stylerecorder="true" style="text-align: left; line-height: 0px; letter-spacing: 0px; font-weight: 500; font-size: 20px;"></circle><circle class="H" cx="254.968" cy="293.636" r="79.52" transform="matrix(.986096 -.166179 .166179 .986096 -64.17061 47.07572)" opacity=".27" fill="url(#C)" data-stylerecorder="true" style="text-align: left; line-height: 0px; letter-spacing: 0px; font-weight: 500; font-size: 20px;"></circle><circle class="I" cx="254.968" cy="293.636" r="51.235" transform="matrix(.986096 -.166179 .166179 .986096 -64.17062 47.07572)" opacity=".27" fill="url(#D)" data-stylerecorder="true" style="text-align: left; line-height: 0px; letter-spacing: 0px; font-weight: 500; font-size: 20px;"></circle></g></g></svg> 